<svg width="24" height="25" viewBox="0 0 24 25" fill="none" xmlns="http://www.w3.org/2000/svg">
<path d="M15.6364 6.55192V17.0065C15.6364 19.0156 14.0091 20.6428 12 20.6428C9.99091 20.6428 8.36364 19.0156 8.36364 17.0065V5.64283C8.36364 4.38829 9.38182 3.37011 10.6364 3.37011C11.8909 3.37011 12.9091 4.38829 12.9091 5.64283V15.1883C12.9091 15.6883 12.5 16.0974 12 16.0974C11.5 16.0974 11.0909 15.6883 11.0909 15.1883V6.55192H9.72727V15.1883C9.72727 16.4428 10.7455 17.461 12 17.461C13.2545 17.461 14.2727 16.4428 14.2727 15.1883V5.64283C14.2727 3.63374 12.6455 2.00647 10.6364 2.00647C8.62727 2.00647 7 3.63374 7 5.64283V17.0065C7 19.7701 9.23636 22.0065 12 22.0065C14.7636 22.0065 17 19.7701 17 17.0065V6.55192H15.6364Z" fill="#462DC8"/>
</svg>
